<?xml version="1.0" standalone="no"?>
<!DOCTYPE svg PUBLIC "-//W3C//DTD SVG 20010904//EN"
 "http://www.w3.org/TR/2001/REC-SVG-20010904/DTD/svg10.dtd">
<svg version="1.0" xmlns="http://www.w3.org/2000/svg"
 width="250.000000pt" height="126.000000pt" viewBox="0 0 938.000000 126.000000"
 preserveAspectRatio="xMidYMid meet">

<g transform="translate(0.000000,126.000000) scale(0.100000,-0.100000)"
fill="#000000" stroke="none">
<path d="M810 1088 c-25 -6 -46 -11 -48 -13 -2 -1 7 -20 20 -41 23 -38 23 -45
23 -329 0 -159 -3 -311 -7 -337 l-8 -48 71 0 c68 0 70 1 63 23 -19 59 -24 102
-24 225 l0 133 53 24 c32 15 70 25 99 25 62 0 85 -24 94 -98 7 -60 -1 -273
-12 -310 -6 -21 -4 -22 66 -22 65 0 71 2 65 18 -16 43 -25 124 -25 241 0 103
-4 134 -20 168 -45 100 -168 112 -280 28 l-35 -26 -3 176 c-3 199 5 184 -92
163z"/>
<path d="M4855 1065 c-5 -2 -22 -6 -37 -9 -24 -5 -28 -12 -28 -39 0 -51 11
-61 63 -53 55 8 70 24 61 63 -9 37 -27 49 -59 38z"/>
<path d="M6771 1059 c-119 -20 -240 -117 -280 -223 -77 -206 8 -439 182 -505
108 -40 210 -24 333 51 54 32 61 42 46 65 -6 10 -26 5 -83 -19 -103 -44 -186
-45 -255 -2 -53 32 -107 104 -124 162 -15 56 -12 203 5 252 17 48 63 115 95
137 28 19 142 18 200 -2 25 -9 62 -27 83 -41 l38 -25 19 43 c11 24 20 48 20
55 0 17 -96 50 -165 56 -33 2 -84 1 -114 -4z"/>
<path d="M180 1013 c0 -24 3 -43 8 -43 4 0 43 7 87 15 44 8 88 14 98 15 17 0
18 -17 15 -340 l-3 -340 60 0 60 0 -3 340 c-3 323 -2 340 15 340 10 -1 54 -7
98 -15 44 -8 83 -15 88 -15 4 0 7 19 7 43 l0 42 -265 0 -265 0 0 -42z"/>
<path d="M2208 1018 c9 -43 9 -623 0 -666 l-8 -32 217 2 217 3 8 39 c5 21 6
41 4 43 -2 3 -21 -1 -43 -7 -21 -6 -91 -14 -155 -17 l-117 -6 -7 27 c-3 14 -5
166 -2 336 l3 310 -62 0 -62 0 7 -32z"/>
<path d="M1525 813 c-82 -43 -135 -130 -143 -234 -5 -73 7 -124 44 -181 54
-84 180 -108 284 -55 84 43 93 52 81 75 -10 20 -11 20 -68 -4 -32 -13 -76 -24
-98 -24 -78 0 -135 61 -135 145 l0 35 138 0 c126 0 141 2 157 20 38 42 0 175
-64 217 -42 28 -148 32 -196 6z m142 -57 c19 -17 49 -114 39 -123 -2 -2 -51
-6 -109 -10 l-107 -6 0 34 c0 49 39 122 70 130 37 10 82 0 107 -25z"/>
<path d="M2835 817 c-86 -39 -148 -149 -148 -262 0 -148 88 -245 223 -245 36
0 121 35 171 70 24 18 27 24 17 39 -11 18 -13 18 -57 -2 -30 -14 -68 -21 -108
-21 -55 -1 -65 2 -92 28 -31 29 -51 79 -51 124 0 22 1 22 143 22 130 0 146 2
162 20 34 38 -5 173 -63 215 -34 25 -152 32 -197 12z m131 -52 c23 -14 44 -69
44 -111 0 -18 -8 -22 -52 -28 -29 -3 -79 -6 -112 -6 l-59 0 7 40 c9 59 36 108
65 119 31 12 77 6 107 -14z"/>
<path d="M3275 819 c-22 -5 -43 -13 -48 -18 -7 -7 20 -91 29 -91 3 0 27 16 55
35 107 73 189 31 189 -97 l0 -53 -83 0 c-148 0 -211 -42 -211 -141 0 -84 43
-130 131 -141 59 -6 111 8 152 43 l29 24 12 -36 c11 -31 15 -35 37 -29 14 3
38 9 54 12 l29 6 -22 36 c-20 32 -24 53 -29 191 -6 172 -15 201 -71 242 -28
19 -47 23 -123 25 -49 1 -108 -3 -130 -8z m216 -285 c5 -3 9 -30 9 -59 0 -54
-1 -55 -42 -76 -60 -31 -105 -29 -134 5 -38 43 -30 118 15 135 25 10 133 7
152 -5z"/>
<path d="M3785 818 c-22 -6 -41 -12 -43 -13 -2 -2 8 -19 22 -39 14 -21 28 -57
32 -81 8 -55 0 -324 -10 -347 -7 -16 -1 -18 64 -18 70 0 72 1 66 23 -20 68
-26 138 -24 253 l3 128 38 9 c27 7 50 5 85 -6 25 -9 49 -14 51 -11 2 2 6 29 9
59 l4 55 -54 0 c-42 0 -64 -6 -99 -29 l-46 -28 -10 28 c-12 31 -23 33 -88 17z"/>
<path d="M4190 819 c-64 -18 -64 -17 -36 -49 35 -42 39 -72 35 -274 l-4 -176
66 0 66 0 -13 52 c-9 32 -14 107 -14 191 l0 138 53 24 c99 47 168 28 183 -50
8 -44 0 -313 -11 -337 -6 -16 0 -18 65 -18 l72 0 -7 28 c-19 70 -24 116 -25
227 0 146 -10 184 -56 224 -30 27 -42 31 -92 31 -45 0 -68 -7 -109 -30 -28
-16 -54 -34 -58 -40 -11 -18 -25 -11 -25 14 0 56 -17 65 -90 45z"/>
<path d="M4817 820 c-50 -9 -52 -13 -25 -50 22 -30 23 -39 23 -203 0 -95 -3
-189 -7 -209 l-7 -38 69 0 70 0 -12 28 c-7 17 -13 113 -16 255 l-4 227 -26 -1
c-15 -1 -44 -5 -65 -9z"/>
<path d="M5100 818 c-25 -6 -46 -11 -48 -13 -2 -1 8 -19 22 -39 14 -21 28 -57
32 -81 8 -55 0 -324 -10 -347 -7 -16 -1 -18 64 -18 l72 0 -7 28 c-19 71 -24
116 -25 230 l0 123 53 24 c71 33 130 33 163 0 l26 -26 -4 -189 -3 -190 67 0
68 0 -12 28 c-6 15 -14 104 -18 197 -5 135 -10 178 -25 209 -45 93 -166 103
-275 21 -32 -23 -35 -24 -42 -8 -3 10 -7 28 -7 41 -1 25 -16 27 -91 10z"/>
<path d="M5810 814 c-116 -50 -143 -193 -53 -283 24 -24 31 -37 22 -40 -28 -9
-69 -60 -69 -85 0 -14 9 -35 21 -47 11 -11 19 -22 17 -23 -1 -1 -16 -10 -31
-20 -63 -39 -73 -128 -19 -178 40 -37 96 -52 194 -52 79 0 93 3 155 34 60 31
70 40 87 82 17 41 18 52 7 88 -16 54 -56 72 -206 95 -149 23 -172 38 -125 80
16 14 34 18 80 16 136 -5 225 84 207 207 -3 20 -8 45 -12 55 -6 15 -1 17 35
17 34 0 41 3 36 16 -3 9 -6 20 -6 26 0 7 -23 9 -62 6 -36 -3 -76 1 -97 8 -49
18 -138 17 -181 -2z m161 -53 c21 -16 24 -30 27 -98 3 -68 1 -81 -18 -105 -17
-23 -29 -28 -64 -28 -29 0 -52 7 -69 21 -48 37 -60 147 -23 204 14 21 24 25
70 25 38 0 61 -6 77 -19z m-53 -462 c125 -27 144 -39 140 -87 -6 -66 -100
-104 -204 -82 -120 26 -167 98 -105 161 35 35 43 35 169 8z"/>
<path d="M7830 817 c-19 -6 -37 -12 -38 -13 -2 -1 9 -24 25 -51 27 -47 28 -52
28 -193 0 -80 -3 -166 -7 -192 l-8 -48 71 0 c68 0 70 1 63 23 -19 60 -24 103
-24 238 l0 147 33 6 c35 7 90 -1 120 -16 14 -7 19 -3 27 17 6 15 10 42 10 61
l0 34 -50 0 c-49 0 -98 -17 -131 -47 -14 -12 -18 -10 -29 17 -14 33 -29 36
-90 17z"/>
<path d="M8193 823 c-24 -2 -43 -6 -43 -8 0 -1 12 -27 28 -56 15 -30 59 -143
97 -252 l70 -197 44 2 43 3 74 214 c41 118 83 230 94 248 11 19 20 36 20 39 0
2 -22 4 -49 4 l-48 0 -7 -47 c-6 -45 -103 -353 -111 -353 -5 0 -111 335 -120
378 -5 25 -11 32 -28 30 -12 -1 -41 -3 -64 -5z"/>
<path d="M8811 808 c-105 -52 -164 -205 -126 -334 29 -101 112 -164 216 -164
40 0 178 65 186 88 12 30 -14 34 -76 13 -74 -26 -123 -27 -162 -4 -35 21 -69
86 -69 131 l0 32 145 0 c140 0 145 1 160 23 12 19 13 34 5 77 -13 67 -37 109
-80 137 -45 31 -137 32 -199 1z m118 -29 c35 -12 57 -47 67 -106 l6 -40 -53
-6 c-30 -4 -80 -7 -111 -7 -54 0 -58 2 -58 23 0 13 7 45 16 71 13 37 24 51 48
62 38 16 45 17 85 3z"/>
<path d="M7160 816 c0 -3 5 -17 11 -33 7 -15 15 -107 18 -203 8 -197 16 -226
75 -254 66 -31 143 -15 226 48 l35 27 12 -42 c7 -23 14 -44 17 -46 3 -4 67 10
103 22 9 3 6 15 -10 42 -21 36 -22 49 -22 241 l0 202 -64 0 c-61 0 -63 -1 -56
-22 4 -13 10 -96 12 -185 l5 -162 -34 -21 c-83 -51 -180 -47 -195 8 -10 34
-10 306 -1 350 l8 32 -70 0 c-39 0 -70 -2 -70 -4z"/>
</g>
</svg>
